<svg id="Layer_1" data-name="Layer 1" xmlns="http://www.w3.org/2000/svg" viewBox="0 0 474.28 474.28"><defs><style>.cls-1{fill:#131e33;}.cls-2,.cls-3{fill:none;stroke:#bf9e5a;stroke-miterlimit:10;}.cls-2{stroke-width:13px;}.cls-3{stroke-width:5px;}.cls-4{fill:#bf9e5a;}.cls-5,.cls-6{font-size:30.76px;fill:#f3f3f4;}.cls-5{font-family:FuturaPT-Bold, Futura PT;font-weight:700;}.cls-6{font-family:FuturaPT-Book, Futura PT;}.cls-7{opacity:0.3;}.cls-8{fill:#121e33;}</style></defs><title>dgx-token</title><circle class="cls-1" cx="237.14" cy="237.14" r="237.14"/><circle class="cls-2" cx="237.14" cy="237.14" r="221.5"/><circle class="cls-3" cx="237.14" cy="237.14" r="214.38"/><path class="cls-4" d="M391.05,228.94a1.52,1.52,0,1,0,.12,3l7.27-.23a1.59,1.59,0,0,0-.13-3.18Z"/><path class="cls-4" d="M391,228.79l7.26-.39a1.75,1.75,0,0,1,.15,3.49l-7.27.24a1.67,1.67,0,1,1-.14-3.34Zm7.28-.07-7.27.37a1.37,1.37,0,1,0,.12,2.73l7.27-.24a1.43,1.43,0,0,0-.12-2.86Z"/><path class="cls-4" d="M390.38,220.62a1.52,1.52,0,1,0,.3,3l7.24-.63a1.59,1.59,0,0,0-.3-3.16Z"/><path class="cls-4" d="M390.37,220.47l7.23-.78a1.75,1.75,0,0,1,.34,3.48l-7.25.62a1.67,1.67,0,1,1-.32-3.32Zm7.26-.47-7.23.77a1.39,1.39,0,0,0-1.26,1.49,1.4,1.4,0,0,0,1.52,1.23l7.25-.64a1.43,1.43,0,0,0-.28-2.85Z"/><path class="cls-4" d="M389.28,212.34a1.52,1.52,0,1,0,.45,3l7.2-1a1.59,1.59,0,0,0-.47-3.15Z"/><path class="cls-4" d="M389.25,212.19l7.18-1.17a1.75,1.75,0,0,1,.53,3.46l-7.21,1a1.67,1.67,0,1,1-.5-3.3Zm7.23-.85-7.18,1.15a1.39,1.39,0,0,0-1.17,1.56,1.37,1.37,0,0,0,1.58,1.14l7.2-1a1.43,1.43,0,0,0-.43-2.83Z"/><path class="cls-4" d="M387.72,204.14a1.52,1.52,0,1,0,.62,3l7.13-1.4a1.59,1.59,0,0,0-.64-3.12Z"/><path class="cls-4" d="M387.69,204l7.1-1.55a1.75,1.75,0,0,1,.71,3.42l-7.13,1.4a1.67,1.67,0,1,1-.68-3.27Zm7.17-1.24-7.11,1.54a1.36,1.36,0,1,0,.56,2.67l7.13-1.41a1.43,1.43,0,0,0-.58-2.8Z"/><path class="cls-4" d="M385.72,196a1.52,1.52,0,1,0,.78,2.93l7.05-1.79a1.59,1.59,0,0,0-.82-3.08Z"/><path class="cls-4" d="M385.68,195.89l7-1.94a1.75,1.75,0,0,1,.89,3.38l-7,1.79a1.67,1.67,0,1,1-.86-3.23Zm7.09-1.63-7,1.92a1.37,1.37,0,1,0,.7,2.64l7.05-1.8a1.43,1.43,0,0,0-.74-2.76Z"/><path class="cls-4" d="M383.28,188.06a1.52,1.52,0,1,0,.94,2.88l6.94-2.17a1.59,1.59,0,0,0-1-3Z"/><path class="cls-4" d="M383.23,187.91l6.89-2.32a1.75,1.75,0,0,1,1.09,3.33l-6.95,2.17a1.67,1.67,0,1,1-1-3.18Zm7-2-6.9,2.31a1.37,1.37,0,1,0,.84,2.6l6.94-2.19a1.43,1.43,0,0,0-.88-2.72Z"/><path class="cls-4" d="M380.41,180.22a1.52,1.52,0,1,0,1.09,2.83l6.81-2.55a1.59,1.59,0,0,0-1.14-3Z"/><path class="cls-4" d="M380.35,180.08l6.76-2.7a1.75,1.75,0,0,1,1.26,3.27l-6.82,2.54a1.67,1.67,0,1,1-1.2-3.11Zm6.88-2.4-6.76,2.68a1.37,1.37,0,1,0,1,2.55l6.81-2.56a1.43,1.43,0,0,0-1-2.67Z"/><path class="cls-4" d="M377.11,172.55a1.52,1.52,0,1,0,1.25,2.77L385,172.4a1.59,1.59,0,0,0-1.3-2.9Z"/><path class="cls-4" d="M377.05,172.41l6.6-3.06a1.75,1.75,0,0,1,1.44,3.19l-6.67,2.92a1.67,1.67,0,1,1-1.37-3.05Zm6.73-2.77-6.6,3.05a1.37,1.37,0,1,0,1.12,2.49l6.66-2.93a1.43,1.43,0,0,0-1.18-2.61Z"/><path class="cls-4" d="M373.41,165.07a1.52,1.52,0,1,0,1.39,2.7l6.49-3.28a1.59,1.59,0,0,0-1.46-2.83Z"/><path class="cls-4" d="M373.34,164.94l6.42-3.42a1.75,1.75,0,0,1,1.61,3.11l-6.5,3.27a1.67,1.67,0,1,1-1.53-3Zm6.57-3.14-6.43,3.4a1.37,1.37,0,1,0,1.25,2.43l6.49-3.28a1.43,1.43,0,0,0-1.31-2.55Z"/><path class="cls-4" d="M369.3,157.8a1.52,1.52,0,1,0,1.54,2.62l6.31-3.63a1.59,1.59,0,0,0-1.62-2.74Z"/><path class="cls-4" d="M369.22,157.67l6.23-3.75a1.75,1.75,0,0,1,1.77,3l-6.3,3.62a1.67,1.67,0,1,1-1.7-2.88Zm6.39-3.48-6.23,3.74a1.37,1.37,0,1,0,1.38,2.36l6.31-3.63a1.43,1.43,0,0,0-1.46-2.47Z"/><path class="cls-4" d="M364.8,150.77a1.52,1.52,0,1,0,1.68,2.53l6.1-4a1.59,1.59,0,0,0-1.76-2.65Z"/><path class="cls-4" d="M364.72,150.64l6-4.08a1.75,1.75,0,0,1,1.94,2.91l-6.11,4a1.67,1.67,0,1,1-1.84-2.79Zm6.19-3.82-6,4.07a1.37,1.37,0,1,0,1.51,2.28l6.09-4a1.43,1.43,0,0,0-1.58-2.38Z"/><path class="cls-4" d="M359.93,144a1.52,1.52,0,1,0,1.82,2.43l5.88-4.28a1.59,1.59,0,0,0-1.91-2.55Z"/><path class="cls-4" d="M359.84,143.87l5.79-4.41a1.75,1.75,0,0,1,2.09,2.81l-5.88,4.27a1.67,1.67,0,1,1-2-2.67Zm6-4.16-5.79,4.4a1.37,1.37,0,1,0,1.63,2.19l5.87-4.29a1.43,1.43,0,0,0-1.71-2.3Z"/><path class="cls-4" d="M354.71,137.48a1.52,1.52,0,1,0,1.94,2.33l5.63-4.59a1.59,1.59,0,0,0-2-2.45Z"/><path class="cls-4" d="M354.61,137.36l5.54-4.71a1.75,1.75,0,0,1,2.23,2.69l-5.64,4.59a1.67,1.67,0,1,1-2.13-2.57Zm5.74-4.47-5.54,4.7a1.36,1.36,0,1,0,1.74,2.1l5.63-4.6a1.43,1.43,0,0,0-1.83-2.2Z"/><path class="cls-4" d="M349.13,131.26a1.52,1.52,0,1,0,2.07,2.22l5.38-4.89a1.59,1.59,0,0,0-2.16-2.33Z"/><path class="cls-4" d="M349,131.15l5.28-5a1.75,1.75,0,0,1,2.38,2.56l-5.39,4.89a1.67,1.67,0,1,1-2.27-2.45Zm5.5-4.77-5.29,5a1.37,1.37,0,1,0,1.86,2l5.37-4.9a1.43,1.43,0,0,0-1.94-2.09Z"/><path class="cls-4" d="M343.24,125.35a1.52,1.52,0,1,0,2.18,2.11l5.11-5.17a1.6,1.6,0,0,0-2.29-2.22Z"/><path class="cls-4" d="M343.13,125.24l5-5.27a1.75,1.75,0,0,1,2.51,2.43l-5.11,5.17a1.67,1.67,0,1,1-2.4-2.33Zm5.23-5.06-5,5.27a1.37,1.37,0,1,0,2,1.91l5.1-5.18a1.43,1.43,0,0,0-2.05-2Z"/><path class="cls-4" d="M337,119.77a1.52,1.52,0,1,0,2.29,2l4.83-5.45a1.59,1.59,0,0,0-2.41-2.08Z"/><path class="cls-4" d="M336.91,119.67l4.71-5.54a1.75,1.75,0,0,1,2.64,2.29l-4.82,5.44a1.67,1.67,0,1,1-2.53-2.19Zm5-5.34-4.73,5.53a1.37,1.37,0,1,0,2.07,1.8l4.82-5.45a1.43,1.43,0,0,0-2.16-1.88Z"/><path class="cls-4" d="M330.53,114.52a1.52,1.52,0,1,0,2.4,1.87l4.52-5.69a1.59,1.59,0,0,0-2.51-2Z"/><path class="cls-4" d="M330.41,114.43l4.4-5.78a1.75,1.75,0,0,1,2.76,2.14L333,116.48a1.67,1.67,0,1,1-2.63-2Zm4.66-5.59-4.42,5.78a1.39,1.39,0,0,0,.22,1.94,1.41,1.41,0,0,0,1.94-.26l4.51-5.7a1.43,1.43,0,0,0-2.25-1.76Z"/><path class="cls-4" d="M323.76,109.64a1.52,1.52,0,1,0,2.49,1.73l4.21-5.93a1.59,1.59,0,0,0-2.61-1.81Z"/><path class="cls-4" d="M323.63,109.56l4.09-6a1.75,1.75,0,0,1,2.87,2l-4.21,5.92a1.67,1.67,0,1,1-2.75-1.9Zm4.35-5.84-4.1,6a1.37,1.37,0,1,0,2.25,1.56l4.2-5.94a1.43,1.43,0,0,0-2.35-1.63Z"/><path class="cls-4" d="M316.73,105.13a1.52,1.52,0,1,0,2.58,1.6l3.89-6.15a1.59,1.59,0,0,0-2.71-1.67Z"/><path class="cls-4" d="M316.6,105.05l3.76-6.22a1.74,1.74,0,0,1,3,1.83l-3.89,6.15a1.67,1.67,0,1,1-2.84-1.76Zm4-6.06-3.77,6.22a1.37,1.37,0,1,0,2.33,1.44l3.87-6.16a1.4,1.4,0,0,0-.47-1.95A1.43,1.43,0,0,0,320.63,99Z"/><path class="cls-4" d="M309.47,101a1.52,1.52,0,1,0,2.67,1.45l3.54-6.35a1.59,1.59,0,0,0-2.79-1.52Z"/><path class="cls-4" d="M309.34,100.94l3.41-6.42a1.75,1.75,0,0,1,3.07,1.67l-3.55,6.35a1.67,1.67,0,1,1-2.93-1.6ZM313,94.67l-3.42,6.41a1.38,1.38,0,0,0,.53,1.88,1.4,1.4,0,0,0,1.87-.57L315.54,96A1.43,1.43,0,0,0,313,94.67Z"/><path class="cls-4" d="M302,97.29a1.52,1.52,0,1,0,2.74,1.31l3.19-6.54a1.59,1.59,0,0,0-2.87-1.37Z"/><path class="cls-4" d="M301.86,97.22l3.06-6.59a1.75,1.75,0,0,1,3.16,1.5l-3.2,6.53a1.67,1.67,0,1,1-3-1.44Zm3.35-6.46-3.07,6.59a1.36,1.36,0,1,0,2.46,1.18L307.79,92a1.43,1.43,0,0,0-2.58-1.23Z"/><path class="cls-4" d="M294.34,94a1.52,1.52,0,1,0,2.81,1.15l2.83-6.7a1.59,1.59,0,0,0-2.94-1.2Z"/><path class="cls-4" d="M294.2,93.92l2.69-6.75a1.75,1.75,0,0,1,3.24,1.33l-2.85,6.69a1.67,1.67,0,1,1-3.08-1.27Zm3-6.63L294.48,94a1.37,1.37,0,1,0,2.53,1l2.82-6.7a1.43,1.43,0,0,0-2.64-1.08Z"/><path class="cls-4" d="M286.51,91.09a1.52,1.52,0,1,0,2.86,1l2.47-6.84a1.59,1.59,0,0,0-3-1Z"/><path class="cls-4" d="M286.36,91l2.32-6.89A1.75,1.75,0,0,1,292,85.3l-2.48,6.84a1.67,1.67,0,1,1-3.15-1.1ZM289,84.25l-2.34,6.89a1.37,1.37,0,1,0,2.58.9l2.46-6.84a1.43,1.43,0,0,0-.89-1.81A1.41,1.41,0,0,0,289,84.25Z"/><path class="cls-4" d="M278.53,88.64a1.52,1.52,0,1,0,2.92.84l2.08-7a1.59,1.59,0,0,0-3-.88Z"/><path class="cls-4" d="M278.38,88.6l1.94-7a1.75,1.75,0,0,1,3.36,1l-2.09,7a1.67,1.67,0,1,1-3.21-.92Zm2.25-6.93-2,7a1.37,1.37,0,1,0,2.63.75l2.08-7a1.43,1.43,0,0,0-2.75-.8Z"/><path class="cls-4" d="M270.43,86.62a1.52,1.52,0,1,0,3,.68l1.7-7.07a1.59,1.59,0,0,0-3.1-.71Z"/><path class="cls-4" d="M270.28,86.59l1.56-7.11a1.75,1.75,0,0,1,3.41.79l-1.72,7.07a1.67,1.67,0,1,1-3.25-.75Zm1.87-7-1.57,7.1a1.37,1.37,0,1,0,2.66.62l1.7-7.07a1.43,1.43,0,0,0-2.79-.65Z"/><path class="cls-4" d="M262.23,85.05a1.52,1.52,0,1,0,3,.52l1.32-7.15a1.59,1.59,0,0,0-3.13-.55Z"/><path class="cls-4" d="M262.08,85l1.17-7.17a1.75,1.75,0,0,1,3.45.6l-1.33,7.15a1.67,1.67,0,1,1-3.29-.58Zm1.48-7.12-1.18,7.17a1.37,1.37,0,1,0,2.69.47l1.31-7.15a1.43,1.43,0,0,0-2.82-.49Z"/><path class="cls-4" d="M254,83.93a1.52,1.52,0,1,0,3,.35l.93-7.21a1.59,1.59,0,0,0-3.16-.37Z"/><path class="cls-4" d="M253.81,83.91l.78-7.23a1.72,1.72,0,0,1,1.93-1.51,1.74,1.74,0,0,1,1.54,1.92l-.93,7.21a1.67,1.67,0,1,1-3.32-.39Zm1.09-7.2-.79,7.23a1.36,1.36,0,1,0,2.71.32l.92-7.21a1.43,1.43,0,0,0-2.84-.34Z"/><path class="cls-4" d="M245.64,83.25a1.52,1.52,0,1,0,3,.19l.53-7.25A1.59,1.59,0,0,0,246,76Z"/><path class="cls-4" d="M245.49,83.24l.38-7.26a1.75,1.75,0,0,1,3.49.22l-.54,7.25a1.67,1.67,0,1,1-3.33-.21Zm.7-7.24-.4,7.26a1.37,1.37,0,1,0,2.73.17l.53-7.25a1.43,1.43,0,0,0-1.34-1.5A1.41,1.41,0,0,0,246.19,76Z"/><path class="cls-4" d="M237.29,83a1.52,1.52,0,1,0,3,0l.14-7.27a1.59,1.59,0,0,0-3.17,0Z"/><path class="cls-4" d="M237.14,83V75.74a1.75,1.75,0,0,1,3.49,0l-.15,7.27a1.67,1.67,0,1,1-3.34,0Zm.31-7.27V83a1.37,1.37,0,1,0,2.73,0l.15-7.27a1.44,1.44,0,0,0-2.87,0Z"/><path class="cls-4" d="M228.94,83.23a1.52,1.52,0,1,0,3-.13l-.23-7.27a1.59,1.59,0,0,0-3.18.14Z"/><path class="cls-4" d="M228.79,83.24,228.4,76a1.75,1.75,0,0,1,3.49-.15l.24,7.27a1.67,1.67,0,1,1-3.34.14ZM228.72,76l.37,7.26a1.37,1.37,0,1,0,2.73-.11l-.24-7.27a1.43,1.43,0,0,0-2.86.12Z"/><path class="cls-4" d="M220.62,83.89a1.52,1.52,0,1,0,3-.29L223,76.35a1.59,1.59,0,0,0-3.16.31Z"/><path class="cls-4" d="M220.47,83.91l-.78-7.23a1.75,1.75,0,0,1,3.48-.34l.62,7.25a1.67,1.67,0,1,1-3.32.32ZM220,76.64l.77,7.24a1.4,1.4,0,0,0,1.49,1.26,1.41,1.41,0,0,0,1.23-1.53l-.64-7.24a1.41,1.41,0,0,0-1.56-1.27A1.43,1.43,0,0,0,220,76.64Z"/><path class="cls-4" d="M212.34,85a1.56,1.56,0,0,0,1.74,1.31,1.54,1.54,0,0,0,1.26-1.77l-1-7.2a1.59,1.59,0,0,0-3.15.48Z"/><path class="cls-4" d="M212.19,85,211,77.85a1.75,1.75,0,0,1,3.45-.53l1,7.2a1.67,1.67,0,1,1-3.3.5Zm-.85-7.22L212.49,85a1.4,1.4,0,0,0,1.56,1.17,1.38,1.38,0,0,0,1.14-1.58l-1-7.2a1.43,1.43,0,0,0-2.83.43Z"/><path class="cls-4" d="M204.14,86.55a1.52,1.52,0,1,0,3-.61l-1.4-7.13a1.59,1.59,0,0,0-3.12.64Z"/><path class="cls-4" d="M204,86.59l-1.55-7.11a1.75,1.75,0,0,1,3.42-.71l1.4,7.14a1.67,1.67,0,1,1-3.27.68Zm-1.24-7.17,1.54,7.1A1.37,1.37,0,1,0,207,86l-1.42-7.13a1.43,1.43,0,0,0-2.8.58Z"/><path class="cls-4" d="M196,88.56a1.52,1.52,0,1,0,2.93-.78l-1.79-7a1.59,1.59,0,0,0-3.08.82Z"/><path class="cls-4" d="M195.89,88.6l-1.94-7a1.75,1.75,0,0,1,3.38-.9l1.79,7a1.67,1.67,0,1,1-3.23.86Zm-1.63-7.1,1.92,7a1.37,1.37,0,1,0,2.64-.71l-1.8-7a1.43,1.43,0,0,0-2.76.73Z"/><path class="cls-4" d="M188.06,91a1.52,1.52,0,1,0,2.88-.94l-2.17-6.94a1.59,1.59,0,0,0-3,1Z"/><path class="cls-4" d="M187.91,91l-2.32-6.89a1.75,1.75,0,0,1,3.33-1.08L191.09,90a1.67,1.67,0,1,1-3.18,1Zm-2-7L188.2,91a1.37,1.37,0,1,0,2.6-.85l-2.19-6.93a1.43,1.43,0,0,0-2.72.88Z"/><path class="cls-4" d="M180.22,93.87a1.52,1.52,0,1,0,2.83-1.1L180.5,86a1.59,1.59,0,0,0-3,1.15Z"/><path class="cls-4" d="M180.08,93.92l-2.7-6.75a1.75,1.75,0,0,1,3.27-1.26l2.54,6.81a1.67,1.67,0,1,1-3.11,1.2Zm-2.4-6.87,2.68,6.76a1.37,1.37,0,1,0,2.55-1L180.35,86a1.43,1.43,0,0,0-2.67,1Z"/><path class="cls-4" d="M172.55,97.16a1.52,1.52,0,1,0,2.77-1.25l-2.92-6.66a1.59,1.59,0,0,0-2.9,1.31Z"/><path class="cls-4" d="M172.41,97.23l-3.06-6.6a1.75,1.75,0,0,1,3.19-1.44l2.92,6.66a1.67,1.67,0,1,1-3.05,1.38Zm-2.77-6.74,3.05,6.61A1.37,1.37,0,1,0,175.18,96l-2.93-6.66a1.43,1.43,0,0,0-2.61,1.17Z"/><path class="cls-4" d="M165.07,100.87a1.54,1.54,0,0,0,2.06.68,1.56,1.56,0,0,0,.64-2.08L164.49,93a1.59,1.59,0,0,0-2.83,1.46Z"/><path class="cls-4" d="M164.94,100.94l-3.42-6.42a1.75,1.75,0,0,1,3.11-1.61l3.27,6.5a1.67,1.67,0,1,1-3,1.53Zm-3.14-6.57,3.4,6.43a1.37,1.37,0,1,0,2.43-1.26l-3.28-6.49a1.44,1.44,0,0,0-2.55,1.32Z"/><path class="cls-4" d="M157.8,105a1.52,1.52,0,1,0,2.62-1.54l-3.63-6.31a1.56,1.56,0,0,0-2.16-.54,1.57,1.57,0,0,0-.58,2.16Z"/><path class="cls-4" d="M157.67,105.06l-3.75-6.23a1.75,1.75,0,0,1,3-1.78l3.62,6.31a1.67,1.67,0,1,1-2.88,1.7Zm-3.48-6.4,3.74,6.24a1.37,1.37,0,1,0,2.36-1.39l-3.63-6.3a1.43,1.43,0,0,0-2.47,1.45Z"/><path class="cls-4" d="M150.77,109.47a1.52,1.52,0,1,0,2.53-1.68l-4-6.09a1.59,1.59,0,0,0-2.65,1.75Z"/><path class="cls-4" d="M150.64,109.56l-4.08-6a1.75,1.75,0,0,1,2.91-1.93l4,6.1a1.67,1.67,0,1,1-2.79,1.85Zm-3.82-6.2,4.07,6a1.37,1.37,0,1,0,2.28-1.51l-4-6.1a1.43,1.43,0,0,0-2.38,1.58Z"/><path class="cls-4" d="M144,114.34a1.52,1.52,0,1,0,2.43-1.81l-4.28-5.88a1.57,1.57,0,0,0-2.21-.3,1.56,1.56,0,0,0-.34,2.2Z"/><path class="cls-4" d="M143.87,114.43l-4.41-5.78a1.75,1.75,0,0,1,2.8-2.09l4.28,5.88a1.67,1.67,0,1,1-2.67,2Zm-4.16-6,4.4,5.79a1.37,1.37,0,1,0,2.19-1.63L142,106.75a1.43,1.43,0,0,0-2.3,1.71Z"/><path class="cls-4" d="M137.48,119.57a1.52,1.52,0,1,0,2.33-1.94L135.22,112a1.59,1.59,0,0,0-2.45,2Z"/><path class="cls-4" d="M137.36,119.67l-4.71-5.54a1.75,1.75,0,0,1,2.69-2.24l4.59,5.64a1.67,1.67,0,1,1-2.57,2.14Zm-4.47-5.75,4.7,5.55a1.36,1.36,0,1,0,2.1-1.74l-4.6-5.64a1.43,1.43,0,0,0-2.2,1.83Z"/><path class="cls-4" d="M131.26,125.14a1.51,1.51,0,1,0,2.22-2.06l-4.89-5.38a1.59,1.59,0,0,0-2.33,2.16Z"/><path class="cls-4" d="M131.15,125.25l-5-5.28a1.75,1.75,0,0,1,2.56-2.38L133.6,123a1.67,1.67,0,1,1-2.45,2.28Zm-4.77-5.5,5,5.29a1.37,1.37,0,1,0,2-1.86l-4.9-5.38a1.43,1.43,0,0,0-2.09,2Z"/><path class="cls-4" d="M125.35,131a1.52,1.52,0,1,0,2.11-2.18l-5.17-5.11a1.59,1.59,0,0,0-2.21,2.28Z"/><path class="cls-4" d="M125.25,131.15l-5.28-5a1.75,1.75,0,0,1,2.43-2.51l5.17,5.11a1.67,1.67,0,1,1-2.32,2.4Zm-5.07-5.23,5.27,5a1.37,1.37,0,1,0,1.91-2l-5.18-5.11a1.44,1.44,0,0,0-2,2.06Z"/><path class="cls-4" d="M119.77,137.25a1.52,1.52,0,1,0,2-2.3l-5.45-4.82a1.59,1.59,0,0,0-2.08,2.4Z"/><path class="cls-4" d="M119.67,137.36l-5.54-4.71a1.75,1.75,0,0,1,2.29-2.64l5.44,4.83a1.71,1.71,0,0,1,.19,2.38A1.69,1.69,0,0,1,119.67,137.36Zm-5.34-5,5.53,4.72a1.37,1.37,0,1,0,1.8-2.06l-5.45-4.82a1.43,1.43,0,0,0-1.88,2.16Z"/><path class="cls-4" d="M114.52,143.75a1.52,1.52,0,1,0,1.87-2.4l-5.69-4.52a1.59,1.59,0,0,0-2,2.51Z"/><path class="cls-4" d="M114.43,143.87l-5.78-4.41a1.72,1.72,0,0,1-.29-2.44,1.74,1.74,0,0,1,2.44-.32l5.68,4.53a1.67,1.67,0,1,1-2,2.64Zm-5.59-4.66,5.78,4.42a1.37,1.37,0,1,0,1.68-2.16L110.6,137a1.43,1.43,0,0,0-1.76,2.26Z"/><path class="cls-4" d="M109.64,150.52a1.52,1.52,0,1,0,1.73-2.49l-5.93-4.21a1.59,1.59,0,0,0-1.81,2.61Z"/><path class="cls-4" d="M109.56,150.64l-6-4.08a1.75,1.75,0,0,1,2-2.87l5.92,4.21a1.67,1.67,0,1,1-1.9,2.74Zm-5.84-4.34,6,4.09a1.37,1.37,0,1,0,1.56-2.24l-5.94-4.2a1.43,1.43,0,0,0-1.63,2.35Z"/><path class="cls-4" d="M105.13,157.54a1.52,1.52,0,1,0,1.6-2.58l-6.15-3.88a1.59,1.59,0,0,0-1.67,2.7Z"/><path class="cls-4" d="M105.05,157.67l-6.22-3.75a1.74,1.74,0,0,1,1.83-3l6.15,3.88a1.67,1.67,0,1,1-1.76,2.84Zm-6.06-4,6.22,3.76a1.37,1.37,0,1,0,1.44-2.32l-6.16-3.88a1.43,1.43,0,0,0-1.5,2.44Z"/><path class="cls-4" d="M101,164.8a1.52,1.52,0,1,0,1.45-2.66l-6.35-3.55a1.59,1.59,0,0,0-1.52,2.8Z"/><path class="cls-4" d="M100.94,164.94l-6.42-3.41a1.75,1.75,0,0,1,1.67-3.08l6.35,3.56a1.67,1.67,0,1,1-1.6,2.93Zm-6.27-3.69,6.41,3.42a1.37,1.37,0,1,0,1.31-2.4L96,158.73a1.44,1.44,0,0,0-1.93.58A1.42,1.42,0,0,0,94.67,161.25Z"/><path class="cls-4" d="M97.29,172.28a1.52,1.52,0,1,0,1.31-2.74l-6.54-3.2a1.59,1.59,0,0,0-1.37,2.87Z"/><path class="cls-4" d="M97.22,172.41l-6.59-3a1.75,1.75,0,0,1,1.5-3.16l6.53,3.2a1.67,1.67,0,1,1-1.44,3Zm-6.46-3.34,6.59,3.07a1.37,1.37,0,1,0,1.18-2.47L92,166.48a1.43,1.43,0,0,0-1.23,2.59Z"/><path class="cls-4" d="M94,179.94a1.52,1.52,0,1,0,1.15-2.81l-6.7-2.83a1.59,1.59,0,0,0-1.2,2.94Z"/><path class="cls-4" d="M93.92,180.08l-6.75-2.69a1.75,1.75,0,0,1,1.33-3.24L95.19,177a1.67,1.67,0,1,1-1.27,3.09Zm-6.63-3L94,179.8a1.37,1.37,0,1,0,1-2.53l-6.7-2.83a1.43,1.43,0,0,0-1.08,2.65Z"/><path class="cls-4" d="M91.09,187.77a1.52,1.52,0,1,0,1-2.87l-6.84-2.46a1.59,1.59,0,0,0-1,3Z"/><path class="cls-4" d="M91,187.91l-6.89-2.32a1.75,1.75,0,0,1,1.15-3.3l6.84,2.47a1.67,1.67,0,1,1-1.1,3.15Zm-6.79-2.62,6.89,2.34a1.37,1.37,0,1,0,.9-2.58l-6.84-2.46a1.43,1.43,0,0,0-1,2.7Z"/><path class="cls-4" d="M88.64,195.75a1.52,1.52,0,1,0,.84-2.92l-7-2.09a1.59,1.59,0,0,0-.88,3.06Z"/><path class="cls-4" d="M88.6,195.89l-7-1.94a1.75,1.75,0,0,1,1-3.36l7,2.1a1.67,1.67,0,1,1-.92,3.2Zm-6.93-2.24,7,1.95a1.36,1.36,0,1,0,.75-2.62l-7-2.08a1.4,1.4,0,0,0-1.75,1A1.41,1.41,0,0,0,81.67,193.65Z"/><path class="cls-4" d="M86.62,203.85a1.52,1.52,0,1,0,.68-3l-7.07-1.7a1.59,1.59,0,0,0-.71,3.09Z"/><path class="cls-4" d="M86.59,204l-7.11-1.56a1.75,1.75,0,0,1,.79-3.41l7.07,1.71a1.67,1.67,0,1,1-.75,3.26Zm-7-1.87,7.1,1.57a1.37,1.37,0,1,0,.62-2.66l-7.07-1.7a1.43,1.43,0,0,0-.65,2.79Z"/><path class="cls-4" d="M85.05,212.05a1.52,1.52,0,1,0,.52-3l-7.15-1.31a1.59,1.59,0,0,0-.55,3.13Z"/><path class="cls-4" d="M85,212.19,77.85,211a1.75,1.75,0,0,1,.6-3.45l7.15,1.32a1.67,1.67,0,1,1-.58,3.29Zm-7.12-1.48,7.17,1.18a1.37,1.37,0,1,0,.47-2.69l-7.15-1.31a1.41,1.41,0,0,0-1.63,1.17A1.4,1.4,0,0,0,77.9,210.71Z"/><path class="cls-4" d="M83.92,220.32a1.52,1.52,0,1,0,.36-3l-7.21-.92a1.59,1.59,0,0,0-.38,3.15Z"/><path class="cls-4" d="M83.91,220.47l-7.23-.78a1.75,1.75,0,0,1,.41-3.47l7.21.93a1.67,1.67,0,1,1-.39,3.32Zm-7.2-1.1,7.23.8a1.37,1.37,0,1,0,.32-2.72l-7.21-.92a1.42,1.42,0,0,0-1.57,1.26A1.4,1.4,0,0,0,76.71,219.37Z"/><path class="cls-4" d="M83.25,228.64a1.52,1.52,0,1,0,.19-3l-7.25-.54a1.59,1.59,0,0,0-.2,3.17Z"/><path class="cls-4" d="M83.24,228.79,76,228.4a1.75,1.75,0,0,1,.22-3.49l7.25.55a1.67,1.67,0,1,1-.21,3.33Zm-7.24-.7,7.26.4a1.37,1.37,0,1,0,.17-2.73l-7.25-.53a1.43,1.43,0,0,0-.18,2.86Z"/><path class="cls-4" d="M83,237a1.52,1.52,0,1,0,0-3l-7.27-.15a1.59,1.59,0,0,0,0,3.18Z"/><path class="cls-4" d="M83,237.14H75.74a1.75,1.75,0,0,1,0-3.5l7.27.16a1.67,1.67,0,1,1,0,3.34Zm-7.27-.32,7.28,0a1.37,1.37,0,1,0,0-2.74L75.78,234a1.43,1.43,0,0,0,0,2.86Z"/><path class="cls-4" d="M83.23,245.34a1.52,1.52,0,1,0-.13-3l-7.27.24a1.59,1.59,0,0,0,.14,3.18Z"/><path class="cls-4" d="M83.24,245.49l-7.26.39a1.75,1.75,0,0,1-.15-3.5l7.27-.23a1.67,1.67,0,1,1,.14,3.34Zm-7.28.07,7.26-.38a1.37,1.37,0,1,0-.11-2.73l-7.27.25a1.43,1.43,0,0,0,.12,2.86Z"/><path class="cls-4" d="M83.89,253.66a1.52,1.52,0,1,0-.29-3l-7.25.63A1.55,1.55,0,0,0,75,253a1.57,1.57,0,0,0,1.71,1.43Z"/><path class="cls-4" d="M83.91,253.81l-7.23.78a1.75,1.75,0,0,1-.34-3.48l7.25-.62a1.67,1.67,0,1,1,.32,3.32Zm-7.27.46,7.24-.76a1.37,1.37,0,1,0-.27-2.72l-7.24.63a1.43,1.43,0,0,0,.27,2.85Z"/><path class="cls-4" d="M85,261.93a1.52,1.52,0,1,0-.46-3l-7.2,1a1.59,1.59,0,0,0,.48,3.14Z"/><path class="cls-4" d="M85,262.08l-7.18,1.17a1.75,1.75,0,0,1-.53-3.46l7.2-1a1.67,1.67,0,1,1,.51,3.3Zm-7.23.86L85,261.78a1.37,1.37,0,1,0-.41-2.7l-7.2,1a1.43,1.43,0,0,0,.43,2.83Z"/><path class="cls-4" d="M86.55,270.13a1.52,1.52,0,1,0-.61-3l-7.13,1.41a1.59,1.59,0,0,0,.64,3.11Z"/><path class="cls-4" d="M86.59,270.28l-7.11,1.56a1.75,1.75,0,0,1-.71-3.43l7.14-1.4a1.67,1.67,0,1,1,.68,3.27Zm-7.17,1.25,7.1-1.54a1.37,1.37,0,1,0-.55-2.68l-7.13,1.42a1.4,1.4,0,0,0-1.09,1.68A1.42,1.42,0,0,0,79.42,271.53Z"/><path class="cls-4" d="M88.56,278.24a1.52,1.52,0,1,0-.78-2.94l-7,1.8a1.59,1.59,0,0,0,.82,3.07Z"/><path class="cls-4" d="M88.6,278.38l-7,1.95a1.72,1.72,0,0,1-2.11-1.25A1.71,1.71,0,0,1,80.69,277l7-1.79a1.67,1.67,0,1,1,.86,3.22ZM81.51,280l7-1.93a1.37,1.37,0,1,0-.7-2.64l-7,1.8a1.43,1.43,0,0,0,.74,2.77Z"/><path class="cls-4" d="M91,286.22a1.52,1.52,0,1,0-.94-2.89l-6.94,2.18a1.59,1.59,0,0,0,1,3Z"/><path class="cls-4" d="M91,286.36l-6.89,2.33a1.75,1.75,0,0,1-1.08-3.33L90,283.19a1.67,1.67,0,1,1,1,3.17Zm-7,2,6.9-2.3a1.37,1.37,0,1,0-.85-2.6l-6.93,2.18a1.42,1.42,0,0,0-.9,1.8A1.41,1.41,0,0,0,84.05,288.38Z"/><path class="cls-4" d="M93.87,294.06a1.52,1.52,0,1,0-1.1-2.83L86,293.78a1.59,1.59,0,0,0,1.14,3Z"/><path class="cls-4" d="M93.92,294.2l-6.75,2.69a1.75,1.75,0,0,1-1.26-3.26l6.81-2.55a1.67,1.67,0,1,1,1.2,3.12Zm-6.87,2.4,6.76-2.68a1.37,1.37,0,1,0-1-2.55L86,293.93a1.43,1.43,0,0,0,1,2.67Z"/><path class="cls-4" d="M97.16,301.73A1.52,1.52,0,1,0,95.91,299l-6.66,2.92a1.59,1.59,0,0,0,1.31,2.9Z"/><path class="cls-4" d="M97.23,301.86l-6.6,3.06a1.75,1.75,0,0,1-1.44-3.19l6.66-2.91a1.67,1.67,0,1,1,1.38,3Zm-6.74,2.77,6.61-3A1.37,1.37,0,1,0,96,299.1L89.32,302a1.43,1.43,0,0,0-.7,1.89A1.41,1.41,0,0,0,90.49,304.63Z"/><path class="cls-4" d="M100.87,309.21a1.52,1.52,0,1,0-1.4-2.7L93,309.79a1.59,1.59,0,0,0,1.46,2.82Z"/><path class="cls-4" d="M100.94,309.34l-6.42,3.41a1.75,1.75,0,0,1-1.61-3.1l6.5-3.28a1.67,1.67,0,1,1,1.53,3Zm-6.57,3.13,6.43-3.4a1.38,1.38,0,0,0,.61-1.85,1.41,1.41,0,0,0-1.87-.58l-6.49,3.29a1.43,1.43,0,0,0,1.32,2.54Z"/><path class="cls-4" d="M105,316.47a1.52,1.52,0,1,0-1.54-2.61l-6.31,3.62a1.59,1.59,0,0,0,1.62,2.74Z"/><path class="cls-4" d="M105.06,316.6l-6.23,3.76a1.75,1.75,0,0,1-1.78-3l6.31-3.61a1.67,1.67,0,1,1,1.7,2.87Zm-6.4,3.49,6.24-3.75a1.37,1.37,0,1,0-1.39-2.35l-6.3,3.63a1.43,1.43,0,0,0,1.45,2.47Z"/><path class="cls-4" d="M109.47,323.51a1.52,1.52,0,1,0-1.68-2.53l-6.09,4a1.59,1.59,0,0,0,1.75,2.65Z"/><path class="cls-4" d="M109.56,323.63l-6,4.09a1.75,1.75,0,0,1-1.93-2.91l6.1-4a1.67,1.67,0,1,1,1.85,2.78Zm-6.2,3.83,6-4.08a1.37,1.37,0,1,0-1.51-2.28l-6.1,4a1.43,1.43,0,0,0,1.58,2.39Z"/><path class="cls-4" d="M114.34,330.29a1.52,1.52,0,1,0-1.81-2.44l-5.88,4.29a1.59,1.59,0,0,0,1.9,2.55Z"/><path class="cls-4" d="M114.43,330.41l-5.78,4.41a1.75,1.75,0,0,1-2.09-2.81l5.88-4.28a1.67,1.67,0,1,1,2,2.68Zm-6,4.15,5.79-4.39a1.37,1.37,0,1,0-1.63-2.19l-5.87,4.29a1.43,1.43,0,0,0,1.71,2.29Z"/><path class="cls-4" d="M119.57,336.8a1.52,1.52,0,1,0-1.94-2.34l-5.64,4.6a1.59,1.59,0,0,0,2,2.44Z"/><path class="cls-4" d="M119.67,336.91l-5.54,4.72a1.75,1.75,0,0,1-2.24-2.69l5.64-4.59a1.67,1.67,0,1,1,2.14,2.56Zm-5.75,4.47,5.55-4.7a1.36,1.36,0,1,0-1.74-2.1l-5.64,4.6a1.41,1.41,0,0,0-.16,2A1.39,1.39,0,0,0,113.92,341.38Z"/><path class="cls-4" d="M125.14,343a1.52,1.52,0,1,0-2.06-2.23l-5.38,4.89a1.59,1.59,0,0,0,2.16,2.33Z"/><path class="cls-4" d="M125.25,343.13l-5.28,5a1.75,1.75,0,0,1-2.38-2.56l5.38-4.89a1.67,1.67,0,1,1,2.28,2.45Zm-5.5,4.77,5.29-5a1.37,1.37,0,1,0-1.86-2l-5.38,4.9a1.43,1.43,0,0,0,2,2.1Z"/><path class="cls-4" d="M131,348.93a1.52,1.52,0,1,0-2.18-2.12L123.75,352A1.59,1.59,0,0,0,126,354.2Z"/><path class="cls-4" d="M131.15,349l-5,5.28a1.75,1.75,0,0,1-2.51-2.43l5.11-5.17a1.67,1.67,0,1,1,2.4,2.32Zm-5.23,5.06,5-5.27a1.37,1.37,0,1,0-2-1.9l-5.11,5.18a1.43,1.43,0,0,0,2.06,2Z"/><path class="cls-4" d="M137.25,354.51a1.52,1.52,0,1,0-2.29-2L130.13,358a1.59,1.59,0,0,0,2.4,2.09Z"/><path class="cls-4" d="M137.36,354.61l-4.71,5.54a1.75,1.75,0,0,1-2.64-2.29l4.83-5.44a1.67,1.67,0,1,1,2.52,2.19Zm-5,5.33,4.72-5.53a1.36,1.36,0,1,0-2.06-1.79l-4.82,5.45a1.43,1.43,0,0,0,2.16,1.87Z"/><path class="cls-4" d="M143.75,359.75a1.52,1.52,0,1,0-2.4-1.86l-4.52,5.69a1.59,1.59,0,0,0,2.51,1.95Z"/><path class="cls-4" d="M143.87,359.84l-4.41,5.79a1.75,1.75,0,0,1-2.76-2.15l4.53-5.69a1.67,1.67,0,1,1,2.64,2Zm-4.66,5.6,4.42-5.78a1.37,1.37,0,1,0-2.16-1.68l-4.52,5.7a1.43,1.43,0,0,0,2.26,1.76Z"/><path class="cls-4" d="M150.52,364.63A1.52,1.52,0,1,0,148,362.9l-4.21,5.93a1.59,1.59,0,0,0,2.61,1.82Z"/><path class="cls-4" d="M150.64,364.72l-4.08,6a1.75,1.75,0,0,1-2.87-2l4.21-5.93a1.67,1.67,0,1,1,2.74,1.91Zm-4.34,5.84,4.09-6a1.37,1.37,0,1,0-2.24-1.56l-4.2,5.93a1.43,1.43,0,0,0,2.35,1.64Z"/><path class="cls-4" d="M157.54,369.14a1.53,1.53,0,0,0-.47-2.11,1.55,1.55,0,0,0-2.11.52l-3.88,6.15a1.59,1.59,0,0,0,2.7,1.67Z"/><path class="cls-4" d="M157.68,369.22l-3.76,6.23a1.75,1.75,0,0,1-3-1.84l3.88-6.14a1.67,1.67,0,1,1,2.85,1.75Zm-4,6.07,3.76-6.22a1.37,1.37,0,1,0-2.32-1.44l-3.88,6.15a1.44,1.44,0,0,0,2.44,1.51Z"/><path class="cls-4" d="M164.8,373.27a1.52,1.52,0,1,0-2.66-1.46l-3.55,6.35a1.59,1.59,0,0,0,2.8,1.52Z"/><path class="cls-4" d="M164.94,373.34l-3.41,6.42a1.75,1.75,0,0,1-3.08-1.67l3.56-6.35a1.67,1.67,0,1,1,2.93,1.6Zm-3.69,6.27,3.42-6.42a1.36,1.36,0,1,0-2.4-1.3l-3.54,6.35a1.43,1.43,0,0,0,2.52,1.37Z"/><path class="cls-4" d="M172.28,377a1.52,1.52,0,1,0-2.74-1.31l-3.2,6.53a1.59,1.59,0,0,0,2.87,1.37Z"/><path class="cls-4" d="M172.41,377.05l-3,6.6a1.75,1.75,0,0,1-3.16-1.51l3.2-6.53a1.67,1.67,0,1,1,3,1.44Zm-3.34,6.47,3.07-6.6a1.37,1.37,0,1,0-2.47-1.17l-3.19,6.53a1.44,1.44,0,0,0,2.59,1.24Z"/><path class="cls-4" d="M179.94,380.3a1.52,1.52,0,1,0-2.81-1.16l-2.83,6.7a1.59,1.59,0,0,0,2.94,1.21Z"/><path class="cls-4" d="M180.08,380.35l-2.69,6.76a1.75,1.75,0,0,1-3.24-1.33l2.84-6.7a1.67,1.67,0,1,1,3.09,1.27Zm-3,6.64,2.71-6.75a1.37,1.37,0,1,0-2.53-1l-2.83,6.7a1.42,1.42,0,0,0,.79,1.85A1.4,1.4,0,0,0,177.09,387Z"/><path class="cls-4" d="M187.77,383.19a1.52,1.52,0,1,0-2.87-1L182.44,389a1.59,1.59,0,0,0,3,1.05Z"/><path class="cls-4" d="M187.91,383.23l-2.32,6.9a1.75,1.75,0,0,1-3.3-1.16l2.47-6.84a1.67,1.67,0,1,1,3.15,1.1ZM185.29,390l2.34-6.88a1.37,1.37,0,1,0-2.58-.91l-2.46,6.85a1.43,1.43,0,0,0,2.7.94Z"/><path class="cls-4" d="M195.75,385.64a1.52,1.52,0,1,0-2.92-.84l-2.09,7a1.59,1.59,0,0,0,3.06.88Z"/><path class="cls-4" d="M195.89,385.68l-1.94,7a1.75,1.75,0,0,1-3.36-1l2.1-7a1.67,1.67,0,1,1,3.2.93Zm-2.24,6.92,1.95-7a1.36,1.36,0,1,0-2.62-.76l-2.08,7a1.43,1.43,0,0,0,2.75.79Z"/><path class="cls-4" d="M203.85,387.66a1.52,1.52,0,1,0-3-.69l-1.7,7.07a1.59,1.59,0,0,0,3.09.72Z"/><path class="cls-4" d="M204,387.69l-1.56,7.1A1.75,1.75,0,0,1,199,394l1.71-7.07a1.67,1.67,0,1,1,3.26.75Zm-1.87,7,1.57-7.1A1.36,1.36,0,1,0,201,387l-1.7,7.07a1.43,1.43,0,0,0,2.79.64Z"/><path class="cls-4" d="M212.05,389.23a1.52,1.52,0,1,0-3-.52l-1.31,7.15a1.59,1.59,0,0,0,3.13.54Z"/><path class="cls-4" d="M212.2,389.25,211,396.43a1.75,1.75,0,0,1-3.45-.6l1.33-7.15a1.67,1.67,0,1,1,3.29.57Zm-1.49,7.13,1.19-7.18a1.37,1.37,0,1,0-2.7-.47l-1.31,7.16a1.41,1.41,0,0,0,1.17,1.63A1.4,1.4,0,0,0,210.71,396.38Z"/><path class="cls-4" d="M220.32,390.35a1.52,1.52,0,1,0-3-.35l-.92,7.21a1.59,1.59,0,0,0,3.15.37Z"/><path class="cls-4" d="M220.47,390.37l-.78,7.23a1.75,1.75,0,0,1-3.47-.41l.93-7.21a1.67,1.67,0,1,1,3.32.39Zm-1.1,7.19.8-7.22a1.37,1.37,0,1,0-2.72-.32l-.92,7.21a1.43,1.43,0,0,0,2.84.33Z"/><path class="cls-4" d="M228.64,391a1.52,1.52,0,1,0-3-.19l-.54,7.25a1.59,1.59,0,0,0,3.17.2Z"/><path class="cls-4" d="M228.79,391l-.39,7.26a1.75,1.75,0,0,1-3.49-.22l.55-7.26a1.67,1.67,0,1,1,3.33.22Zm-.7,7.24.4-7.26a1.37,1.37,0,1,0-2.73-.17l-.53,7.25a1.43,1.43,0,0,0,2.86.18Z"/><path class="cls-4" d="M237,391.26a1.52,1.52,0,1,0-3,0l-.15,7.27a1.59,1.59,0,0,0,3.18,0Z"/><path class="cls-4" d="M237.14,391.26v7.27a1.75,1.75,0,0,1-3.5,0l.16-7.27a1.67,1.67,0,1,1,3.34,0Zm-.32,7.27,0-7.27a1.37,1.37,0,1,0-2.74,0L234,398.5a1.43,1.43,0,0,0,2.86,0Z"/><path class="cls-4" d="M245.34,391.05a1.52,1.52,0,1,0-3,.12l.24,7.27a1.59,1.59,0,0,0,3.18-.13Z"/><path class="cls-4" d="M245.49,391l.39,7.26a1.75,1.75,0,0,1-3.5.15l-.23-7.27a1.67,1.67,0,1,1,3.34-.14Zm.07,7.28-.38-7.27a1.37,1.37,0,1,0-2.73.12l.25,7.27a1.43,1.43,0,0,0,2.86-.12Z"/><path class="cls-4" d="M253.66,390.38a1.52,1.52,0,1,0-3,.3l.63,7.24a1.59,1.59,0,0,0,3.16-.3Z"/><path class="cls-4" d="M253.81,390.37l.78,7.23a1.75,1.75,0,0,1-3.48.34l-.62-7.25a1.67,1.67,0,1,1,3.32-.32Zm.46,7.26-.76-7.23a1.37,1.37,0,1,0-2.72.26l.63,7.25a1.43,1.43,0,0,0,2.85-.28Z"/><path class="cls-4" d="M261.93,389.28a1.52,1.52,0,1,0-3,.45l1,7.2a1.59,1.59,0,0,0,3.14-.48Z"/><path class="cls-4" d="M262.08,389.25l1.17,7.18a1.75,1.75,0,0,1-3.46.53l-1-7.21a1.67,1.67,0,1,1,3.3-.5Zm.86,7.23-1.16-7.18a1.37,1.37,0,1,0-2.7.41l1,7.2a1.43,1.43,0,0,0,2.83-.43Z"/><path class="cls-4" d="M270.14,387.72a1.52,1.52,0,1,0-3,.62l1.41,7.13a1.57,1.57,0,0,0,1.88,1.21,1.55,1.55,0,0,0,1.23-1.85Z"/><path class="cls-4" d="M270.28,387.69l1.56,7.1a1.75,1.75,0,0,1-3.42.71L267,388.37a1.67,1.67,0,1,1,3.27-.68Zm1.25,7.17L270,387.75a1.37,1.37,0,1,0-2.68.56l1.42,7.13a1.43,1.43,0,0,0,2.8-.58Z"/><path class="cls-4" d="M278.24,385.72a1.52,1.52,0,1,0-2.94.78l1.8,7.05a1.59,1.59,0,0,0,3.07-.82Z"/><path class="cls-4" d="M278.38,385.68l1.95,7a1.75,1.75,0,0,1-3.38.89l-1.79-7a1.67,1.67,0,1,1,3.22-.86Zm1.64,7.09-1.93-7a1.37,1.37,0,1,0-2.64.7l1.8,7.05a1.42,1.42,0,0,0,1.75,1A1.41,1.41,0,0,0,280,392.77Z"/><path class="cls-4" d="M286.22,383.28a1.52,1.52,0,1,0-2.89.94l2.18,6.94a1.59,1.59,0,0,0,3-1Z"/><path class="cls-4" d="M286.36,383.23l2.33,6.89a1.75,1.75,0,0,1-3.33,1.08l-2.17-6.94a1.67,1.67,0,1,1,3.17-1Zm2,7-2.3-6.89a1.37,1.37,0,1,0-2.6.84l2.18,6.94a1.43,1.43,0,0,0,2.72-.89Z"/><path class="cls-4" d="M294.06,380.41a1.52,1.52,0,1,0-2.83,1.09l2.55,6.81a1.57,1.57,0,0,0,2.05.89,1.55,1.55,0,0,0,.91-2Z"/><path class="cls-4" d="M294.2,380.35l2.69,6.76a1.75,1.75,0,0,1-3.26,1.26l-2.55-6.82a1.67,1.67,0,1,1,3.12-1.2Zm2.4,6.88-2.68-6.76a1.37,1.37,0,1,0-2.55,1l2.56,6.81a1.43,1.43,0,0,0,2.67-1Z"/><path class="cls-4" d="M301.73,377.11a1.52,1.52,0,1,0-2.77,1.25l2.92,6.66a1.59,1.59,0,0,0,2.9-1.3Z"/><path class="cls-4" d="M301.86,377.05l3.06,6.6a1.75,1.75,0,0,1-3.19,1.44l-2.91-6.67a1.67,1.67,0,1,1,3-1.37Zm2.77,6.73-3-6.6a1.37,1.37,0,1,0-2.49,1.12L302,385a1.43,1.43,0,0,0,1.89.7A1.41,1.41,0,0,0,304.63,383.78Z"/><path class="cls-4" d="M309.21,373.41a1.52,1.52,0,1,0-2.7,1.39l3.28,6.49a1.59,1.59,0,0,0,2.82-1.46Z"/><path class="cls-4" d="M309.34,373.34l3.41,6.42a1.75,1.75,0,0,1-3.1,1.61l-3.28-6.5a1.67,1.67,0,1,1,3-1.53Zm3.13,6.57-3.4-6.43a1.36,1.36,0,1,0-2.42,1.25l3.28,6.49a1.43,1.43,0,0,0,2.54-1.31Z"/><path class="cls-4" d="M316.47,369.3a1.52,1.52,0,1,0-2.61,1.54l3.62,6.31a1.59,1.59,0,0,0,2.17.54,1.57,1.57,0,0,0,.57-2.16Z"/><path class="cls-4" d="M316.6,369.22l3.76,6.23a1.75,1.75,0,0,1-3,1.77l-3.61-6.3a1.67,1.67,0,1,1,2.87-1.7Zm3.49,6.39-3.75-6.23a1.36,1.36,0,1,0-2.35,1.38l3.63,6.31a1.43,1.43,0,0,0,2.47-1.46Z"/><path class="cls-4" d="M323.51,364.8a1.52,1.52,0,1,0-2.53,1.68l4,6.1a1.59,1.59,0,0,0,2.65-1.76Z"/><path class="cls-4" d="M323.63,364.72l4.09,6a1.75,1.75,0,0,1-2.91,1.94l-4-6.11a1.67,1.67,0,1,1,2.78-1.84Zm3.83,6.19-4.08-6a1.37,1.37,0,1,0-2.28,1.51l4,6.09a1.43,1.43,0,0,0,2.39-1.58Z"/><path class="cls-4" d="M330.29,359.93a1.52,1.52,0,1,0-2.43,1.82l4.28,5.87a1.59,1.59,0,0,0,2.55-1.9Z"/><path class="cls-4" d="M330.41,359.84l4.41,5.79a1.75,1.75,0,0,1-2.81,2.09l-4.28-5.88a1.67,1.67,0,1,1,2.68-2Zm4.15,6-4.39-5.8a1.37,1.37,0,1,0-2.19,1.64l4.29,5.87a1.43,1.43,0,0,0,2.29-1.71Z"/><path class="cls-4" d="M336.8,354.71a1.54,1.54,0,0,0-2.16-.23,1.56,1.56,0,0,0-.18,2.17l4.6,5.63a1.59,1.59,0,0,0,2.44-2Z"/><path class="cls-4" d="M336.91,354.61l4.72,5.54a1.73,1.73,0,0,1-.25,2.44,1.71,1.71,0,0,1-2.44-.21l-4.59-5.64a1.67,1.67,0,1,1,2.56-2.13Zm4.47,5.74-4.7-5.55a1.37,1.37,0,1,0-2.1,1.75l4.6,5.63a1.43,1.43,0,0,0,2.2-1.83Z"/><path class="cls-4" d="M343,349.13a1.52,1.52,0,1,0-2.23,2.07l4.89,5.38a1.59,1.59,0,0,0,2.33-2.16Z"/><path class="cls-4" d="M343.13,349l5,5.28a1.75,1.75,0,0,1-2.56,2.38l-4.89-5.39a1.67,1.67,0,1,1,2.45-2.27Zm4.77,5.5-5-5.29a1.37,1.37,0,1,0-2,1.86l4.9,5.37a1.43,1.43,0,0,0,2.1-1.94Z"/><path class="cls-4" d="M348.93,343.24a1.52,1.52,0,1,0-2.12,2.18l5.18,5.11a1.59,1.59,0,0,0,2.21-2.29Z"/><path class="cls-4" d="M349,343.13l5.28,5a1.75,1.75,0,0,1-2.43,2.51l-5.17-5.12a1.67,1.67,0,1,1,2.32-2.39Zm5.06,5.23-5.27-5a1.37,1.37,0,1,0-1.9,2l5.18,5.1a1.43,1.43,0,0,0,2-2.05Z"/><path class="cls-4" d="M354.51,337a1.52,1.52,0,1,0-2,2.29l5.44,4.83a1.6,1.6,0,0,0,2.09-2.41Z"/><path class="cls-4" d="M354.61,336.91l5.54,4.71a1.75,1.75,0,0,1-2.29,2.64l-5.44-4.82a1.67,1.67,0,1,1,2.19-2.53Zm5.33,5-5.53-4.73a1.37,1.37,0,1,0-1.79,2.07l5.45,4.82a1.43,1.43,0,0,0,1.87-2.16Z"/><path class="cls-4" d="M359.75,330.53a1.51,1.51,0,1,0-1.86,2.39l5.69,4.53a1.59,1.59,0,0,0,1.95-2.51Z"/><path class="cls-4" d="M359.84,330.41l5.79,4.4a1.75,1.75,0,0,1-2.15,2.76L357.79,333a1.67,1.67,0,1,1,2-2.63Zm5.6,4.66-5.78-4.42a1.37,1.37,0,1,0-1.68,2.16l5.7,4.51a1.43,1.43,0,0,0,1.76-2.25Z"/><path class="cls-4" d="M364.63,323.76a1.52,1.52,0,1,0-1.73,2.49l5.93,4.21a1.59,1.59,0,0,0,1.82-2.61Z"/><path class="cls-4" d="M364.72,323.63l6,4.09a1.75,1.75,0,0,1-2,2.87l-5.93-4.22a1.67,1.67,0,1,1,1.91-2.74Zm5.84,4.35-6-4.1a1.37,1.37,0,1,0-1.56,2.25l5.93,4.2a1.43,1.43,0,0,0,1.64-2.35Z"/><path class="cls-4" d="M369.14,316.73a1.52,1.52,0,1,0-1.59,2.58l6.15,3.89a1.59,1.59,0,0,0,1.67-2.71Z"/><path class="cls-4" d="M369.22,316.6l6.23,3.76a1.75,1.75,0,0,1-1.84,3l-6.14-3.89a1.67,1.67,0,1,1,1.75-2.84Zm6.07,4-6.22-3.77a1.37,1.37,0,1,0-1.44,2.33l6.15,3.87a1.43,1.43,0,0,0,1.51-2.43Z"/><path class="cls-4" d="M373.27,309.47a1.52,1.52,0,1,0-1.46,2.67l6.35,3.54a1.59,1.59,0,0,0,1.52-2.79Z"/><path class="cls-4" d="M373.34,309.34l6.42,3.41a1.75,1.75,0,0,1-1.67,3.07l-6.35-3.55a1.67,1.67,0,1,1,1.6-2.93Zm6.27,3.69-6.42-3.42a1.37,1.37,0,0,0-1.87.53,1.39,1.39,0,0,0,.57,1.87l6.35,3.53a1.43,1.43,0,0,0,1.37-2.51Z"/><path class="cls-4" d="M377,302a1.52,1.52,0,1,0-1.31,2.74l6.53,3.19a1.59,1.59,0,0,0,1.37-2.87Z"/><path class="cls-4" d="M377.05,301.86l6.6,3.06a1.75,1.75,0,0,1-1.51,3.16l-6.53-3.2a1.67,1.67,0,1,1,1.44-3Zm6.47,3.35-6.6-3.07a1.36,1.36,0,1,0-1.17,2.46l6.53,3.19a1.43,1.43,0,0,0,1.24-2.58Z"/><path class="cls-4" d="M380.3,294.34a1.52,1.52,0,1,0-1.16,2.81l6.7,2.83a1.59,1.59,0,0,0,1.21-2.94Z"/><path class="cls-4" d="M380.35,294.2l6.76,2.69a1.75,1.75,0,0,1-1.33,3.24l-6.7-2.85a1.67,1.67,0,1,1,1.27-3.08Zm6.64,3-6.75-2.71a1.37,1.37,0,1,0-1,2.53l6.7,2.82a1.42,1.42,0,0,0,1.85-.79A1.4,1.4,0,0,0,387,297.19Z"/><path class="cls-4" d="M383.19,286.51a1.52,1.52,0,1,0-1,2.86l6.84,2.47a1.6,1.6,0,0,0,1.06-3Z"/><path class="cls-4" d="M383.23,286.36l6.9,2.32A1.75,1.75,0,0,1,389,292l-6.84-2.48a1.67,1.67,0,1,1,1.1-3.15ZM390,289l-6.88-2.34a1.37,1.37,0,1,0-.91,2.58l6.85,2.46a1.42,1.42,0,0,0,1.8-.89A1.4,1.4,0,0,0,390,289Z"/><path class="cls-4" d="M385.64,278.53a1.51,1.51,0,1,0-.84,2.91l7,2.09a1.59,1.59,0,0,0,.88-3Z"/><path class="cls-4" d="M385.68,278.38l7,1.94a1.75,1.75,0,0,1-1,3.36l-7-2.09a1.67,1.67,0,1,1,.93-3.21Zm6.92,2.25-7-2a1.37,1.37,0,1,0-.76,2.63l7,2.08a1.43,1.43,0,0,0,.79-2.75Z"/><path class="cls-4" d="M387.66,270.43a1.52,1.52,0,1,0-.69,3l7.07,1.7a1.59,1.59,0,0,0,.72-3.1Z"/><path class="cls-4" d="M387.69,270.28l7.1,1.56a1.75,1.75,0,0,1-.78,3.41l-7.07-1.72a1.67,1.67,0,1,1,.75-3.25Zm7,1.87-7.1-1.57a1.36,1.36,0,1,0-.61,2.66l7.07,1.7a1.43,1.43,0,0,0,.64-2.79Z"/><path class="cls-4" d="M389.23,262.23a1.52,1.52,0,1,0-.52,3l7.15,1.32a1.59,1.59,0,0,0,.54-3.13Z"/><path class="cls-4" d="M389.25,262.08l7.18,1.17a1.75,1.75,0,0,1-.6,3.44l-7.15-1.32a1.67,1.67,0,1,1,.57-3.29Zm7.13,1.48-7.18-1.18a1.37,1.37,0,1,0-.47,2.69l7.16,1.31a1.43,1.43,0,0,0,.49-2.82Z"/><path class="cls-4" d="M390.35,254a1.52,1.52,0,1,0-.35,3l7.21.93a1.59,1.59,0,0,0,.37-3.16Z"/><path class="cls-4" d="M390.37,253.81l7.23.78a1.75,1.75,0,0,1-.41,3.47l-7.21-.94a1.67,1.67,0,1,1,.39-3.31Zm7.19,1.09-7.22-.79a1.36,1.36,0,1,0-.32,2.71l7.21.92a1.43,1.43,0,0,0,.33-2.84Z"/><path class="cls-4" d="M391,245.64a1.52,1.52,0,1,0-.19,3l7.25.53a1.59,1.59,0,0,0,.2-3.17Z"/><path class="cls-4" d="M391,245.49l7.26.38a1.75,1.75,0,0,1-.22,3.49l-7.26-.54a1.67,1.67,0,1,1,.22-3.33Zm7.24.7-7.26-.4a1.37,1.37,0,1,0-.17,2.73l7.25.52a1.43,1.43,0,0,0,.18-2.85Z"/><path class="cls-4" d="M391.26,237.29a1.52,1.52,0,1,0,0,3l7.27.14a1.59,1.59,0,0,0,0-3.17Z"/><path class="cls-4" d="M391.26,237.14h7.27a1.75,1.75,0,0,1,0,3.49l-7.27-.15a1.67,1.67,0,1,1,0-3.34Zm7.27.31h-7.27a1.39,1.39,0,0,0-1.41,1.35,1.38,1.38,0,0,0,1.38,1.38l7.27.14a1.41,1.41,0,0,0,1.43-1.41A1.43,1.43,0,0,0,398.53,237.45Z"/><text></text><circle class="cls-4" cx="237.14" cy="237.14" r="143.08"/><text class="cls-5" transform="matrix(0.83, -0.56, 0.56, 0.83, 135.03, 91.71)"> </text><text class="cls-5" transform="matrix(0.85, -0.53, 0.53, 0.85, 140.82, 87.8)"> </text><text class="cls-5" transform="translate(146.74 84.14) rotate(-29.47)"> </text><text class="cls-5" transform="translate(152.79 80.72) rotate(-27.23)"> </text><text class="cls-5" transform="translate(158.97 77.53) rotate(-24.98)"> </text><text class="cls-5" transform="translate(165.3 74.58) rotate(-22.72)"> </text><text class="cls-5" transform="matrix(0.94, -0.35, 0.35, 0.94, 171.72, 71.88)"> </text><text class="cls-5" transform="matrix(0.95, -0.31, 0.31, 0.95, 178.24, 69.45)"> </text><text class="cls-5" transform="matrix(0.96, -0.27, 0.27, 0.96, 184.85, 67.27)"> </text><text class="cls-5" transform="translate(191.55 65.36) rotate(-13.67)"> </text><text class="cls-5" transform="translate(198.32 63.7) rotate(-11.41)"> </text><text class="cls-5" transform="translate(204.89 62.08) rotate(-6.92)">D</text><text class="cls-5" transform="translate(225.53 59.47) rotate(0.08)">G</text><text class="cls-5" transform="translate(247.96 59.48) rotate(6.94)">X</text><text class="cls-6" transform="translate(269.24 62.35) rotate(11.5)"> </text><text class="cls-6" transform="translate(276.05 63.73) rotate(13.75)"> </text><text class="cls-6" transform="translate(282.82 65.38) rotate(16.01)"> </text><text class="cls-6" transform="translate(289.51 67.3) rotate(18.28)"> </text><text class="cls-6" transform="translate(296.11 69.48) rotate(20.54)"> </text><text class="cls-6" transform="translate(302.66 71.92) rotate(22.81)"> </text><text class="cls-6" transform="matrix(0.91, 0.42, -0.42, 0.91, 309.07, 74.61)"> </text><text class="cls-6" transform="translate(315.37 77.56) rotate(27.31)"> </text><text class="cls-6" transform="translate(321.55 80.75) rotate(29.57)"> </text><text class="cls-6" transform="translate(327.62 84.19) rotate(31.82)"> </text><text class="cls-6" transform="matrix(0.83, 0.56, -0.56, 0.83, 333.54, 87.85)"> </text><text class="cls-6" transform="translate(339.32 91.75) rotate(36.3)"> </text><text class="cls-6" transform="matrix(0.78, 0.62, -0.62, 0.78, 344.93, 95.87)"> </text><text class="cls-6" transform="translate(350.38 100.21) rotate(40.78)"> </text><text class="cls-6" transform="matrix(0.73, 0.68, -0.68, 0.73, 355.65, 104.75)"> </text><text class="cls-6" transform="matrix(0.7, 0.71, -0.71, 0.7, 360.75, 109.5)"> </text><text class="cls-6" transform="translate(365.66 114.45) rotate(47.48)"> </text><text class="cls-6" transform="translate(370.38 119.59) rotate(49.71)"> </text><text class="cls-6" transform="matrix(0.62, 0.79, -0.79, 0.62, 374.89, 124.9)"> </text><text class="cls-6" transform="translate(379.18 130.37) rotate(54.18)"> </text><text class="cls-6" transform="translate(383.26 136.02) rotate(56.42)"> </text><text class="cls-6" transform="translate(387.11 141.81) rotate(58.66)"> </text><text class="cls-6" transform="matrix(0.45, 0.89, -0.89, 0.45, 390.93, 147.4)">G</text><text class="cls-6" transform="translate(401.14 167.66) rotate(70.97)">O</text><text class="cls-6" transform="translate(408.65 190.36) rotate(76.56)">L</text><text class="cls-6" transform="translate(411.3 200.61) rotate(81.36)">D</text><text class="cls-6" transform="translate(413.96 219.5) rotate(85.53)"> </text><text class="cls-6" transform="matrix(0.01, 1, -1, 0.01, 414.65, 226.32)">B</text><text class="cls-6" transform="translate(414.97 242.13) rotate(94.64)">A</text><text class="cls-6" transform="translate(413.6 260.05) rotate(100.53)">C</text><text class="cls-6" transform="translate(410.02 279.08) rotate(106.42)">K</text><text class="cls-6" transform="translate(405.18 295.39) rotate(111.52)">E</text><text class="cls-6" transform="matrix(-0.45, 0.89, -0.89, -0.45, 400.03, 308.79)">D</text><text class="cls-6" transform="translate(391.22 325.69) rotate(121.09)"> </text><text class="cls-6" transform="matrix(-0.56, 0.83, -0.83, -0.56, 387.74, 331.64)">T</text><text class="cls-6" transform="matrix(-0.64, 0.77, -0.77, -0.64, 381.52, 341.38)">O</text><text class="cls-6" transform="translate(366.12 359.61) rotate(136.33)">K</text><text class="cls-6" transform="matrix(-0.78, 0.62, -0.62, -0.78, 353.78, 371.33)">E</text><text class="cls-6" transform="translate(342.76 380.47) rotate(147.35)">N</text><text class="cls-6" transform="translate(323.11 392.67) rotate(152.17)"> </text><text class="cls-6" transform="translate(316.96 395.92) rotate(154.42)"> </text><text class="cls-6" transform="translate(310.69 398.93) rotate(156.68)"> </text><text class="cls-6" transform="translate(304.28 401.7) rotate(158.94)"> </text><text class="cls-6" transform="matrix(-0.95, 0.32, -0.32, -0.95, 297.79, 404.2)"> </text><text class="cls-6" transform="matrix(-0.96, 0.28, -0.28, -0.96, 291.22, 406.44)"> </text><text class="cls-6" transform="matrix(-0.97, 0.25, -0.25, -0.97, 284.53, 408.43)"> </text><text class="cls-6" transform="matrix(-0.98, 0.21, -0.21, -0.98, 277.77, 410.16)"> </text><text class="cls-6" transform="matrix(-0.99, 0.17, -0.17, -0.99, 270.98, 411.61)"> </text><text class="cls-6" transform="matrix(-0.99, 0.13, -0.13, -0.99, 264.13, 412.79)"> </text><text class="cls-6" transform="matrix(-1, 0.09, -0.09, -1, 257.22, 413.7)"> </text><text class="cls-6" transform="translate(250.27 414.35) rotate(176.98)"> </text><text class="cls-6" transform="matrix(-1, 0.01, -0.01, -1, 243.32, 414.72)"> </text><text class="cls-6" transform="translate(236.35 414.85) rotate(-178.06)"> </text><text class="cls-6" transform="translate(229.37 414.65) rotate(-176.38)"> </text><text class="cls-6" transform="translate(222.44 414.22) rotate(-174.16)"> </text><text class="cls-6" transform="translate(215.51 413.52) rotate(-171.93)"> </text><text class="cls-6" transform="matrix(-0.98, -0.18, 0.18, -0.98, 208.6, 412.54)"> </text><text class="cls-6" transform="matrix(-0.98, -0.22, 0.22, -0.98, 201.74, 411.29)"> </text><text class="cls-6" transform="matrix(-0.97, -0.26, 0.26, -0.97, 194.97, 409.79)"> </text><text class="cls-6" transform="matrix(-0.96, -0.29, 0.29, -0.96, 188.24, 408.01)"> </text><text class="cls-6" transform="translate(181.58 405.96) rotate(-160.64)"> </text><text class="cls-6" transform="translate(175 403.66) rotate(-158.37)"> </text><text class="cls-6" transform="matrix(-0.91, -0.41, 0.41, -0.91, 168.51, 401.09)"> </text><text class="cls-6" transform="translate(162.16 398.27) rotate(-153.85)"> </text><text class="cls-6" transform="matrix(-0.88, -0.48, 0.48, -0.88, 155.9, 395.21)"> </text><text class="cls-6" transform="matrix(-0.86, -0.51, 0.51, -0.86, 149.78, 391.9)"> </text><text class="cls-6" transform="matrix(-0.84, -0.54, 0.54, -0.84, 143.79, 388.36)"> </text><text class="cls-6" transform="matrix(-0.82, -0.58, 0.58, -0.82, 137.93, 384.57)"> </text><text class="cls-6" transform="translate(132.25 380.8) rotate(-141.01)">1</text><text class="cls-6" transform="matrix(-0.73, -0.68, 0.68, -0.73, 119.04, 369.9)"> </text><text class="cls-6" transform="matrix(-0.67, -0.74, 0.74, -0.67, 113.84, 365.56)">G</text><text class="cls-6" transform="translate(98.61 348.63) rotate(-126.38)">R</text><text class="cls-6" transform="matrix(-0.51, -0.86, 0.86, -0.51, 89.64, 336.64)">A</text><text class="cls-6" transform="translate(79.87 320.89) rotate(-113.8)">M</text><text class="cls-6" transform="translate(69.74 296.87) rotate(-108.48)"> </text><text class="cls-6" transform="matrix(-0.23, -0.97, 0.97, -0.23, 67.23, 290.6)">O</text><text class="cls-6" transform="matrix(-0.13, -0.99, 0.99, -0.13, 61.91, 267.29)">F</text><text class="cls-6" transform="translate(60.27 254.35) rotate(-94.34)"> </text><text class="cls-6" transform="translate(59.48 247.6) rotate(-89.92)">G</text><text class="cls-6" transform="matrix(0.14, -0.99, 0.99, 0.14, 59.49, 224.95)">O</text><text class="cls-6" transform="matrix(0.23, -0.97, 0.97, 0.23, 63.02, 201.29)">L</text><text class="cls-6" transform="matrix(0.31, -0.95, 0.95, 0.31, 65.28, 190.96)">D</text><g class="cls-7"><path class="cls-1" d="M114.64,244.32a3.25,3.25,0,0,1,3.06,2.17h47.6a1.1,1.1,0,0,1,.77.32L207,287.72a1.1,1.1,0,0,1,.32.77v64.67a3.26,3.26,0,1,1-2.17,0V288.94l-40.27-40.28H117.7a3.25,3.25,0,1,1-3.06-4.34Z"/><path class="cls-1" d="M151.51,321.21l13-13a1.09,1.09,0,0,1,.76-.32H196a1.08,1.08,0,0,1,1.08,1.08V350a3.26,3.26,0,1,1-2.16,0V310H165.75L153,322.74a3.25,3.25,0,0,1-5.23,3.7,3.25,3.25,0,0,1,3.7-5.23Z"/><path class="cls-1" d="M118,264.78a3.25,3.25,0,0,1,3.06,2.17H165.3a1.06,1.06,0,0,1,.77.32l28.52,28.52a3.25,3.25,0,1,1-1.53,1.53l-28.21-28.2H121.09a3.25,3.25,0,1,1-3.06-4.34Z"/><path class="cls-1" d="M311.45,143.87,268.35,187a1.07,1.07,0,0,1-1.53,0l-20.46-20.45a1.09,1.09,0,0,1-.31-.77V117.67a3.25,3.25,0,1,1,2.16,0v47.64l19.37,19.37,42.34-42.34a3.26,3.26,0,1,1,1.53,1.53Z"/><path class="cls-1" d="M238,117.67v48.08a1.06,1.06,0,0,1-.32.77L207,197.2a1.07,1.07,0,0,1-1.53,0l-48.67-48.67a3.25,3.25,0,1,1,1.53-1.53l47.91,47.91,29.6-29.6V117.67a3.25,3.25,0,1,1,2.16,0Z"/><path class="cls-1" d="M338.72,299.79l-30.67-30.67H236.9a1.08,1.08,0,0,1-1.08-1.09V179a3.25,3.25,0,1,1,2.16,0V267H308.5a1.05,1.05,0,0,1,.76.32l31,31a3.27,3.27,0,1,1-1.53,1.54Z"/><path class="cls-1" d="M227.76,118.15v47.6a1.09,1.09,0,0,1-1.09,1.09H206.22a1.1,1.1,0,0,1-.77-.32l-31.13-31.13a3.25,3.25,0,1,1,1.53-1.53l30.81,30.81h18.93V118.15a3.26,3.26,0,1,1,2.17,0Z"/><path class="cls-1" d="M169.74,138l36.92,36.92h6.73a3.26,3.26,0,1,1,0,2.16h-7.17a1.09,1.09,0,0,1-.77-.31l-37.24-37.24a3.26,3.26,0,1,1,1.53-1.53Z"/><path class="cls-1" d="M183.46,168.06a3.26,3.26,0,1,1,5.23-.91l16.13,16.13a3.26,3.26,0,1,1-1.53,1.53l-16.13-16.13A3.24,3.24,0,0,1,183.46,168.06Z"/><path class="cls-1" d="M217.53,119.37v15.7a1.07,1.07,0,0,1-.32.76L207,146.06a1.07,1.07,0,0,1-1.53,0l-17.53-17.53a3.26,3.26,0,1,1,1.53-1.53l16.77,16.77,9.14-9.15V119.37a3.26,3.26,0,1,1,2.17,0Z"/><path class="cls-1" d="M215.05,148.23l-5.91,5.9a3.26,3.26,0,1,1-1.53-1.53l5.91-5.91a3.25,3.25,0,1,1,1.53,1.54Z"/><path class="cls-1" d="M209.47,135.07a3.26,3.26,0,1,1-4.34-3.06V121.54a3.26,3.26,0,1,1,2.17,0V132A3.25,3.25,0,0,1,209.47,135.07Z"/><path class="cls-1" d="M305.59,139.51l-37.24,37.24a1.11,1.11,0,0,1-.77.31,1,1,0,0,1-.41-.08,1.08,1.08,0,0,1-.67-1V121.54a3.26,3.26,0,1,1,2.17,0v51.83L304.06,138a3.25,3.25,0,1,1,1.53,1.53Z"/><path class="cls-1" d="M292.88,131.76,280.74,143.9a3.26,3.26,0,1,1-1.53-1.53l12.14-12.15a3.25,3.25,0,1,1,1.53,1.54Z"/><path class="cls-1" d="M278.79,125.39l-2,2a3.26,3.26,0,1,1-1.53-1.53l1.95-2a3.26,3.26,0,1,1,1.53,1.53Z"/><path class="cls-1" d="M280.11,157.83a3.26,3.26,0,1,1-.9-5.23l5.9-5.91a3.25,3.25,0,1,1,1.53,1.54l-5.9,5.9A3.26,3.26,0,0,1,280.11,157.83Z"/><path class="cls-1" d="M260.61,165.75a3.26,3.26,0,1,1-4.34-3.05V138.13a3.26,3.26,0,1,1,2.17,0V162.7A3.24,3.24,0,0,1,260.61,165.75Z"/><path class="cls-1" d="M334.68,306,308.5,279.79l-18.93,18.93,17.53,17.52a3.27,3.27,0,1,1-1.53,1.54l-18.3-18.3a1.09,1.09,0,0,1,0-1.53l20.46-20.45a1.07,1.07,0,0,1,1.53,0l26.95,26.94a3.26,3.26,0,1,1-1.53,1.53Z"/><path class="cls-1" d="M308.5,290l-7.31,7.3a3.26,3.26,0,1,1-1.53-1.53l8.07-8.07a1.09,1.09,0,0,1,1.53,0L332,310.42a3.25,3.25,0,1,1-1.53,1.53Z"/><path class="cls-1" d="M317.64,316.12v-6.73l-7.75-7.75a3.26,3.26,0,1,1,1.53-1.53l8.07,8.07a1.08,1.08,0,0,1,.31.76v7.18a3.22,3.22,0,0,1,2.18,3.05,3.26,3.26,0,1,1-6.51,0A3.23,3.23,0,0,1,317.64,316.12Z"/><path class="cls-1" d="M225.91,330.16a1,1,0,0,1-.32-.76V288.49a1.06,1.06,0,0,1,.32-.77l9.46-9.46-9.46-9.46a1.06,1.06,0,0,1-.32-.77V228.2H165.3a1.05,1.05,0,0,1-.76-.32l-38.13-38.12a3.25,3.25,0,1,1,.9-5.23,3.23,3.23,0,0,1,.63,3.7L165.75,226h60.92a1.08,1.08,0,0,1,1.09,1.08v40.46l9.91,9.92a1.09,1.09,0,0,1,0,1.52l-9.91,9.92v40l26.74,26.74a3.25,3.25,0,1,1-.91,5.23,3.23,3.23,0,0,1-.62-3.69Z"/><path class="cls-1" d="M184.76,236.93a1.08,1.08,0,0,1,1-.66h20.46a1.08,1.08,0,0,1,.76.31l8.07,8.07a3.25,3.25,0,0,1,3.7,5.23,3.25,3.25,0,0,1-5.23-3.7l-7.75-7.75h-17.4l16.45,16.45a3.26,3.26,0,1,1-1.53,1.53L185,238.12A1.11,1.11,0,0,1,184.76,236.93Z"/><path class="cls-1" d="M207,268.8a1.07,1.07,0,0,1-1.53,0l-18.29-18.3a3.25,3.25,0,1,1,1.53-1.53l17.53,17.53,8.69-8.69-7.3-7.31a3.25,3.25,0,1,1,1.53-1.53l8.07,8.07a1.09,1.09,0,0,1,0,1.53Z"/><path class="cls-1" d="M127.45,238.43a3.26,3.26,0,1,1,0-2.16H165.3a1.09,1.09,0,0,1,.77.31l28.52,28.52a3.25,3.25,0,1,1-.9,5.23,3.21,3.21,0,0,1-.63-3.69l-28.2-28.21Z"/><path class="cls-1" d="M124.32,191.76a3.24,3.24,0,0,1,.62,3.7l28.74,28.73a3.26,3.26,0,1,1-1.53,1.53L123.41,197a3.25,3.25,0,0,1-3.69-5.23A3.25,3.25,0,0,1,124.32,191.76Z"/><path class="cls-1" d="M147.15,224.82a3.25,3.25,0,1,1-5.23.9l-5.9-5.9a3.25,3.25,0,1,1,.9-5.23,3.26,3.26,0,0,1,.63,3.7l5.9,5.9A3.25,3.25,0,0,1,147.15,224.82Z"/><path class="cls-1" d="M136.92,224.82a3.25,3.25,0,1,1-5.23.9l-5.9-5.9a3.25,3.25,0,0,1-3.7-5.23,3.25,3.25,0,0,1,5.23,3.7l5.9,5.9A3.25,3.25,0,0,1,136.92,224.82Z"/><path class="cls-1" d="M118.55,219.75l4.45,4.44a3.26,3.26,0,1,1-1.53,1.53L117,221.28a3.26,3.26,0,1,1,1.53-1.53Z"/><path class="cls-1" d="M215.36,355.33v-15.7a1.08,1.08,0,0,1,1.08-1.08h10.23a1.11,1.11,0,0,1,.77.31l17.87,17.88a3.26,3.26,0,1,1-1.53,1.53l-17.56-17.56h-8.69v14.62a3.26,3.26,0,1,1-2.17,0Z"/><path class="cls-1" d="M223.42,349.86a3.26,3.26,0,1,1,4.34,3.05v3.7a3.26,3.26,0,1,1-2.17,0v-3.7A3.24,3.24,0,0,1,223.42,349.86Z"/><path class="cls-1" d="M213.19,278.26a3.26,3.26,0,1,1,4.34,3.06v45a3.26,3.26,0,1,1-2.17,0v-45A3.25,3.25,0,0,1,213.19,278.26Z"/><path class="cls-1" d="M185.76,295.46a3.26,3.26,0,1,1-3.06,4.34H165.3a1.09,1.09,0,0,1-.76-.32l-18.3-18.29a3.26,3.26,0,1,1,1.53-1.53l18,18H182.7A3.25,3.25,0,0,1,185.76,295.46Z"/><path class="cls-1" d="M167.61,286.18a3.26,3.26,0,1,1-5.23.91l-5.91-5.9a3.26,3.26,0,1,1,1.53-1.53l5.91,5.9A3.25,3.25,0,0,1,167.61,286.18Z"/><path class="cls-1" d="M157.38,296.41a3.26,3.26,0,1,1-5.23.91L136,281.19a3.25,3.25,0,1,1,1.53-1.53l16.13,16.13A3.24,3.24,0,0,1,157.38,296.41Z"/><path class="cls-1" d="M125.29,285.23a3.25,3.25,0,0,1,3.06,2.18h6.27a1.11,1.11,0,0,1,.77.31L145.61,298a1.07,1.07,0,0,1,0,1.53L139.06,306a3.26,3.26,0,1,1-1.53-1.53l5.79-5.79-9.15-9.15h-5.82a3.25,3.25,0,1,1-3.06-4.34Z"/><path class="cls-1" d="M146.57,315.92l5.58-5.58a3.26,3.26,0,1,1,1.53,1.53l-5.58,5.59a3.25,3.25,0,1,1-1.53-1.54Z"/><path class="cls-1" d="M165.3,315.92a3.25,3.25,0,0,1,3.06,2.17H182.7a3.26,3.26,0,1,1,0,2.16H168.36a3.25,3.25,0,1,1-3.06-4.33Z"/><path class="cls-1" d="M165.3,326.14a3.25,3.25,0,0,1,3.06,2.18H182.7a3.26,3.26,0,1,1,0,2.16H168.36a3.25,3.25,0,1,1-3.06-4.34Z"/><path class="cls-1" d="M169,336.37a3.25,3.25,0,0,1,3.06,2.18H182.7a3.25,3.25,0,1,1,0,2.16H172.09a3.25,3.25,0,1,1-3.06-4.34Z"/><path class="cls-1" d="M206.22,218H165.3a1.08,1.08,0,0,1-.76-.31l-18.3-18.3a3.26,3.26,0,1,1,1.53-1.53l18,18h39.38v-9.14a1.1,1.1,0,0,1,.32-.77l18.29-18.29a3.26,3.26,0,1,1,1.54,1.53l-18,18v9.78A1.08,1.08,0,0,1,206.22,218Z"/><path class="cls-1" d="M214.14,204.36a3.24,3.24,0,0,1,3.7-.62l5.9-5.91a3.25,3.25,0,1,1,5.23.91,3.23,3.23,0,0,1-3.69.62l-5.91,5.91a3.25,3.25,0,1,1-5.23-.91Z"/><path class="cls-1" d="M218.75,219.19a3.26,3.26,0,1,1-.91-5.22l5.9-5.91a3.27,3.27,0,1,1,1.54,1.53l-5.91,5.91A3.23,3.23,0,0,1,218.75,219.19Z"/><path class="cls-1" d="M198.29,194.13a3.26,3.26,0,1,1-4.6,4.61,3.23,3.23,0,0,1-.63-3.7L166.7,168.68a3.26,3.26,0,1,1,1.53-1.53l26.36,26.36A3.24,3.24,0,0,1,198.29,194.13Z"/><path class="cls-1" d="M198.29,209a3.25,3.25,0,0,1-5.23-3.7l-7.3-7.3-9.46,9.46a1.09,1.09,0,0,1-.77.32,1.07,1.07,0,0,1-.76-.32l-18.3-18.29a3.26,3.26,0,1,1,1.53-1.53l17.53,17.52,9.46-9.46a1.14,1.14,0,0,1,1.54,0l8.06,8.07a3.25,3.25,0,0,1,3.7,5.23Z"/><path class="cls-1" d="M155.08,154.44a1.09,1.09,0,0,1,1.08,1.08v9.79l18,18a3.25,3.25,0,1,1-1.53,1.53l-18.29-18.29a1.1,1.1,0,0,1-.32-.77v-9.14h-5.52a3.26,3.26,0,1,1,0-2.17Z"/><path class="cls-1" d="M144.08,165a1.11,1.11,0,0,1,1.53,0l18.3,18.29a3.26,3.26,0,1,1-1.53,1.53l-17.53-17.53-7.3,7.3a3.25,3.25,0,1,1-1.53-1.53Z"/><path class="cls-1" d="M134.62,189.47a3.26,3.26,0,1,1,3.06-4.34h4.11a3.26,3.26,0,1,1,0,2.16h-4.11A3.26,3.26,0,0,1,134.62,189.47Z"/><path class="cls-1" d="M162.25,258.89H137.68a3.26,3.26,0,1,1,0-2.17h24.57a3.26,3.26,0,1,1,0,2.17Z"/><path class="cls-1" d="M115.86,254.55a3.25,3.25,0,0,1,3.06,2.17h2.41a3.26,3.26,0,1,1,0,2.17h-2.41a3.25,3.25,0,1,1-3.06-4.34Z"/><path class="cls-1" d="M290.34,290.79a3.26,3.26,0,1,1-.9-5.23l5.9-5.9a3.25,3.25,0,1,1,1.53,1.53l-5.9,5.9A3.26,3.26,0,0,1,290.34,290.79Z"/><path class="cls-1" d="M280.11,290.79a3.26,3.26,0,1,1-.9-5.23l5.9-5.9a3.25,3.25,0,1,1,1.53,1.53l-5.9,5.9A3.26,3.26,0,0,1,280.11,290.79Z"/><path class="cls-1" d="M265.28,276a3.26,3.26,0,1,1,.91,5.23l-5.91,5.9a3.26,3.26,0,1,1-1.53-1.53l5.91-5.9A3.24,3.24,0,0,1,265.28,276Z"/><path class="cls-1" d="M246.36,330.16a1.07,1.07,0,0,1-.31-.76V288.49a1.09,1.09,0,0,1,.31-.77l8.07-8.06a3.25,3.25,0,1,1,1.53,1.53l-7.75,7.75v40l18,18a3.26,3.26,0,1,1-1.53,1.53Z"/><path class="cls-1" d="M233.64,308.94A3.26,3.26,0,1,1,238,312v14.34a3.26,3.26,0,1,1-2.16,0V312A3.25,3.25,0,0,1,233.64,308.94Z"/><path class="cls-1" d="M289.44,311.87a3.25,3.25,0,1,1,1.53-1.53l20.49,20.49a3.26,3.26,0,1,1-1.53,1.53Z"/><path class="cls-1" d="M256.59,330.16a1.07,1.07,0,0,1-.32-.76V298.72a1.09,1.09,0,0,1,1.09-1.09h17.39a3.26,3.26,0,1,1,0,2.17H258.44V329l20.35,20.35a3.25,3.25,0,1,1-.9,5.23,3.22,3.22,0,0,1-.63-3.69Z"/><path class="cls-1" d="M347.39,189.76l-17.67,17.67a1.12,1.12,0,0,1-.77.32H288a1.08,1.08,0,0,1-1.08-1.08V186.21a1.11,1.11,0,0,1,.31-.77l18.3-18.29a3.26,3.26,0,1,1,1.53,1.53l-18,18v18.92H328.5l17.36-17.36a3.25,3.25,0,0,1,5.23-3.69,3.25,3.25,0,0,1-3.7,5.23Z"/><path class="cls-1" d="M317,148.53l-15.84,15.83a3.25,3.25,0,1,1-1.53-1.54L315.49,147a3.26,3.26,0,1,1,1.54,1.53Z"/><path class="cls-1" d="M319.8,158.58V176a1.11,1.11,0,0,1-.31.77L301.19,195a3.26,3.26,0,1,1-1.53-1.53l18-18V158.58a3.26,3.26,0,1,1,2.16,0Z"/><path class="cls-1" d="M306.19,173.68a3.26,3.26,0,1,1,.91,5.23l-5.91,5.9a3.25,3.25,0,1,1-1.53-1.53l5.91-5.9A3.24,3.24,0,0,1,306.19,173.68Z"/><path class="cls-1" d="M246.05,227.12V186.21a1.07,1.07,0,0,1,1.07-1.08h10.24a1.08,1.08,0,0,1,.76.31l18.3,18.3a3.23,3.23,0,0,1,3.69.62,3.26,3.26,0,1,1-5.23.91l-18-18h-8.7v39.38l18,18a3.27,3.27,0,1,1-1.52,1.53l-18.3-18.29A1.11,1.11,0,0,1,246.05,227.12Z"/><path class="cls-1" d="M244.82,235.05a3.25,3.25,0,0,1,5.23,3.7l16.13,16.13a3.27,3.27,0,1,1-1.52,1.53l-16.14-16.13a3.25,3.25,0,0,1-3.7-5.23Z"/><path class="cls-1" d="M244.82,249.88a3.26,3.26,0,1,1,5.23-.91l5.91,5.91a3.26,3.26,0,1,1-1.53,1.53l-5.91-5.91A3.25,3.25,0,0,1,244.82,249.88Z"/><path class="cls-1" d="M308.5,213.64a3.26,3.26,0,1,1-3.06,4.33H277.81a1.07,1.07,0,0,1-.76-.31l-18.3-18.3a3.26,3.26,0,1,1,1.53-1.53l18,18h27.18A3.25,3.25,0,0,1,308.5,213.64Z"/><path class="cls-1" d="M348,199.36,331.88,215.5a3.26,3.26,0,1,1-1.53-1.53l16.13-16.14a3.26,3.26,0,1,1,1.53,1.53Z"/><path class="cls-1" d="M255.05,209a3.26,3.26,0,1,1,5.23-.91l16.14,16.13a3.25,3.25,0,1,1-1.54,1.53l-16.13-16.13A3.24,3.24,0,0,1,255.05,209Z"/><path class="cls-1" d="M347.1,235.05a3.26,3.26,0,1,1,.91,5.23l-18.29,18.29a1.12,1.12,0,0,1-.77.32H288a1.12,1.12,0,0,1-.77-.32L269,240.28a3.25,3.25,0,1,1,.9-5.23,3.23,3.23,0,0,1,.63,3.7l18,18h40l18-18A3.24,3.24,0,0,1,347.1,235.05Z"/><path class="cls-1" d="M356.78,221.28l-16.84,16.84a1.12,1.12,0,0,1-.76.31,1.14,1.14,0,0,1-.77-.31l-8.06-8.07a3.25,3.25,0,1,1,1.53-1.53l7.3,7.3,16.07-16.07a3.26,3.26,0,1,1,1.53,1.53Z"/><path class="cls-1" d="M348,209.59l-5.9,5.91a3.27,3.27,0,1,1-1.54-1.53l5.91-5.91a3.26,3.26,0,1,1,1.53,1.53Z"/><path class="cls-1" d="M297.5,236.58a1.09,1.09,0,0,1,.77-.31h20.45a1.11,1.11,0,0,1,.77.31l8.07,8.07a3.22,3.22,0,0,1,3.69.63,3.25,3.25,0,1,1-5.23.9l-7.75-7.75H298.71l-9.91,9.91a1.05,1.05,0,0,1-.76.32,1.25,1.25,0,0,1-.42-.08,1.09,1.09,0,0,1-.66-1V227.12A1.08,1.08,0,0,1,288,226h27.62a3.26,3.26,0,1,1,0,2.16H289.12V245Z"/><path class="cls-1" d="M301.32,246.49h14.34a3.26,3.26,0,1,1,0,2.17H301.32a3.26,3.26,0,1,1,0-2.17Z"/><path class="cls-1" d="M336.27,170.19,311.42,195a3.26,3.26,0,1,1-1.53-1.53l24.85-24.85a3.26,3.26,0,1,1,1.53,1.53Z"/><path class="cls-1" d="M340.31,176.38,321.65,195a3.26,3.26,0,1,1-1.53-1.53l18.66-18.66a3.25,3.25,0,1,1,1.53,1.53Z"/><path class="cls-1" d="M345.86,286.47,328.19,268.8a1.07,1.07,0,0,1,0-1.53l28.52-28.52a3.25,3.25,0,1,1,1.53,1.53L330.48,268l16.91,16.91a3.25,3.25,0,1,1-1.53,1.53Z"/><path class="cls-1" d="M342.49,293.33l-12.14-12.14a3.25,3.25,0,1,1,1.53-1.53L344,291.8a3.25,3.25,0,1,1-1.54,1.53Z"/><path class="cls-1" d="M342.23,269.12a3.23,3.23,0,0,1-3.05,2.17,3.26,3.26,0,1,1,0-6.51,3.23,3.23,0,0,1,3.05,2.17h10.48a3.26,3.26,0,1,1,0,2.17Z"/><path class="cls-1" d="M357.55,251.19l-5.22,5.22a3.26,3.26,0,1,1-1.53-1.53l5.22-5.22a3.25,3.25,0,1,1,1.53,1.53Z"/><path class="cls-1" d="M269,311.87a3.26,3.26,0,1,1,1.53-1.53l28.82,28.82a3.25,3.25,0,1,1-1.53,1.53Z"/><path class="cls-1" d="M269,322.1a3.26,3.26,0,1,1,1.53-1.53l16.13,16.13a3.25,3.25,0,1,1-1.53,1.53Z"/></g><polygon class="cls-1" points="237.14 133.61 133.61 237.14 171.25 274.79 237.14 208.9 303.02 274.79 340.67 237.14 237.14 133.61"/><rect class="cls-4" x="205.21" y="252.26" width="63.86" height="63.86" transform="translate(-131.5 250.92) rotate(-45)"/><path class="cls-8" d="M237.14,250.35,271,284.2,237.14,318,203.29,284.2l33.85-33.85m0-22.62L180.67,284.2l56.47,56.47,56.47-56.47-56.47-56.47Z"/></svg>