<svg id="Layer_1" data-name="Layer 1" xmlns="http://www.w3.org/2000/svg" viewBox="0 0 297.09 114.26"><defs><style>.cls-1{fill:#fff;}</style></defs><title>digix-global_logo-white</title><path class="cls-1" d="M148.12,46.87h4.5c2.52,0,10.76.73,10.76,10.2a10.33,10.33,0,0,1-1.79,6.25ZM152.94,42H141.29v4.43l16.25,19.74a14.57,14.57,0,0,1-4.92.81h-6.51V56h-4.82v16h11.65a16.18,16.18,0,0,0,10.13-3.42c3.26-2.67,5-6.67,5-11.56,0-10.38-7.59-15-15.11-15"/><rect class="cls-1" x="184.04" y="42.04" width="4.86" height="30.01"/><path class="cls-1" d="M226.3,57.76V66.3a10.46,10.46,0,0,1-5.77,1.58,10.75,10.75,0,1,1,0-21.5,11.16,11.16,0,0,1,7.77,3.09l1,.92V44.13L229,44a15.65,15.65,0,1,0-.13,26.43,13.22,13.22,0,0,0,2.33-1.78l.18-.17V57.76Z"/><rect class="cls-1" x="247.36" y="42.04" width="4.86" height="30.01"/><polygon class="cls-1" points="297.09 42.04 290.91 42.04 282.62 52.78 274.24 42.04 268.06 42.04 279.51 56.79 268.09 72.05 274.13 72.05 282.62 60.85 291.03 72.05 297.07 72.05 285.69 56.79 297.09 42.04"/><rect class="cls-1" x="35.09" y="61.06" width="44.07" height="44.07" transform="translate(-42.03 64.73) rotate(-45)"/><polygon class="cls-1" points="57.13 0 0 57.13 20.77 77.9 57.13 41.55 93.48 77.9 114.26 57.13 57.13 0"/></svg>